<svg xmlns="http://www.w3.org/2000/svg" xmlns:xlink="http://www.w3.org/1999/xlink" width="500" zoomAndPan="magnify" viewBox="0 0 375 374.999991" height="500" preserveAspectRatio="xMidYMid meet" version="1.0"><defs><g/><clipPath id="id1"><path d="M 174 141.9375 L 237 141.9375 L 237 210 L 174 210 Z M 174 141.9375 " clip-rule="nonzero"/></clipPath><clipPath id="id2"><path d="M 161.269531 181 L 311.269531 181 L 311.269531 233.4375 L 161.269531 233.4375 Z M 161.269531 181 " clip-rule="nonzero"/></clipPath></defs><rect x="-37.5" width="450" fill="#ffffff" y="-37.499999" height="449.999989" fill-opacity="1"/><rect x="-37.5" width="450" fill="#ffffff" y="-37.499999" height="449.999989" fill-opacity="1"/><rect x="-37.5" width="450" fill="#ffffff" y="-37.499999" height="449.999989" fill-opacity="1"/><rect x="-37.5" width="450" fill="#ffffff" y="-37.499999" height="449.999989" fill-opacity="1"/><g fill="#38b6ff" fill-opacity="1"><g transform="translate(93.582618, 226.24648)"><g><path d="M 10.90625 -12.53125 L 20.140625 -12.53125 L 20.140625 -1 C 17.640625 -0.132812 14.882812 0.296875 11.875 0.296875 C 8.570312 0.296875 6.019531 -0.660156 4.21875 -2.578125 C 2.414062 -4.492188 1.515625 -7.222656 1.515625 -10.765625 C 1.515625 -14.210938 2.5 -16.898438 4.46875 -18.828125 C 6.445312 -20.753906 9.210938 -21.71875 12.765625 -21.71875 C 14.109375 -21.71875 15.378906 -21.585938 16.578125 -21.328125 C 17.773438 -21.078125 18.816406 -20.753906 19.703125 -20.359375 L 17.875 -15.828125 C 16.332031 -16.585938 14.640625 -16.96875 12.796875 -16.96875 C 11.109375 -16.96875 9.800781 -16.414062 8.875 -15.3125 C 7.957031 -14.21875 7.5 -12.648438 7.5 -10.609375 C 7.5 -8.609375 7.914062 -7.082031 8.75 -6.03125 C 9.582031 -4.988281 10.785156 -4.46875 12.359375 -4.46875 C 13.210938 -4.46875 14.003906 -4.550781 14.734375 -4.71875 L 14.734375 -8.0625 L 10.90625 -8.0625 Z M 10.90625 -12.53125 "/></g></g></g><g fill="#38b6ff" fill-opacity="1"><g transform="translate(115.772298, 226.24648)"><g><path d="M 11.640625 0 L 7.265625 -15.421875 L 7.125 -15.421875 C 7.332031 -12.796875 7.4375 -10.753906 7.4375 -9.296875 L 7.4375 0 L 2.3125 0 L 2.3125 -21.40625 L 10.015625 -21.40625 L 14.484375 -6.203125 L 14.59375 -6.203125 L 18.96875 -21.40625 L 26.6875 -21.40625 L 26.6875 0 L 21.375 0 L 21.375 -9.390625 C 21.375 -9.867188 21.378906 -10.40625 21.390625 -11 C 21.410156 -11.601562 21.476562 -13.066406 21.59375 -15.390625 L 21.46875 -15.390625 L 17.140625 0 Z M 11.640625 0 "/></g></g></g><g fill="#38b6ff" fill-opacity="1"><g transform="translate(144.753544, 226.24648)"><g><path d="M 20.484375 -11.15625 C 20.484375 -7.582031 19.5 -4.828125 17.53125 -2.890625 C 15.5625 -0.960938 12.796875 0 9.234375 0 L 2.3125 0 L 2.3125 -21.40625 L 9.71875 -21.40625 C 13.15625 -21.40625 15.804688 -20.523438 17.671875 -18.765625 C 19.546875 -17.015625 20.484375 -14.476562 20.484375 -11.15625 Z M 14.484375 -10.953125 C 14.484375 -12.910156 14.09375 -14.363281 13.3125 -15.3125 C 12.539062 -16.257812 11.363281 -16.734375 9.78125 -16.734375 L 8.09375 -16.734375 L 8.09375 -4.75 L 9.390625 -4.75 C 11.140625 -4.75 12.425781 -5.253906 13.25 -6.265625 C 14.070312 -7.285156 14.484375 -8.847656 14.484375 -10.953125 Z M 14.484375 -10.953125 "/></g></g></g><g clip-path="url(#id1)"><path fill="#71cbff" d="M 206.449219 190.820312 L 213.855469 177.945312 L 218.714844 186.398438 C 224.476562 184.589844 230.507812 183.046875 236.753906 181.792969 L 213.855469 141.964844 L 187.5625 187.6875 L 174.976562 209.574219 C 183.519531 202.171875 194.195312 195.839844 206.449219 190.820312 " fill-opacity="1" fill-rule="nonzero"/></g><g clip-path="url(#id2)"><path fill="#7ed957" d="M 295.640625 182.652344 C 233.808594 177.414062 177.390625 199.3125 161.273438 233.414062 L 181.960938 233.414062 C 192.800781 220.8125 208.34375 209.644531 227.203125 201.160156 L 230.476562 206.851562 L 245.746094 233.414062 L 266.433594 233.414062 L 244.109375 194.585938 C 254.785156 191.046875 266.234375 188.320312 278.285156 186.589844 C 289.574219 184.96875 300.636719 184.339844 311.273438 184.578125 C 306.160156 183.765625 300.953125 183.101562 295.640625 182.652344 " fill-opacity="1" fill-rule="nonzero"/></g></svg>